<?xml version="1.0" encoding="UTF-8"?>
<svg xmlns="http://www.w3.org/2000/svg" viewBox="0 0 1200 700" width="1200" height="700" font-family="ui-monospace, 'SF Mono', 'Menlo', 'Consolas', monospace">
  <rect width="1200" height="700" fill="#F3F4F6"/>
  <text x="600" y="40" text-anchor="middle" font-family="ui-sans-serif, system-ui, sans-serif" font-size="22" font-weight="700" fill="#1F2937">MyBatis SQL Formatter — paste a log block, get a formatted query</text>

  <g transform="translate(40, 80)">
    <text x="180" y="0" text-anchor="middle" font-family="ui-sans-serif, system-ui, sans-serif" font-size="14" font-weight="700" fill="#6B7280" letter-spacing="1">BEFORE</text>
    <rect x="0" y="20" width="360" height="540" rx="10" fill="#1E1E1E" stroke="#374151" stroke-width="1"/>
    <rect x="0" y="20" width="360" height="32" rx="10" fill="#252526"/>
    <rect x="0" y="40" width="360" height="12" fill="#252526"/>
    <circle cx="18" cy="36" r="6" fill="#FF5F57"/>
    <circle cx="38" cy="36" r="6" fill="#FEBC2E"/>
    <circle cx="58" cy="36" r="6" fill="#28C840"/>
    <text x="180" y="40" text-anchor="middle" font-size="12" fill="#9CA3AF">sample.log</text>
    <rect x="0" y="52" width="360" height="28" fill="#252526"/>
    <rect x="0" y="52" width="120" height="28" fill="#1E1E1E"/>
    <rect x="0" y="78" width="120" height="2" fill="#FB923C"/>
    <text x="14" y="71" font-size="12" fill="#FFFFFF">sample.log</text>
    <text x="98" y="71" font-size="14" fill="#9CA3AF">×</text>
    <g transform="translate(0, 80)">
      <g font-size="13" fill="#6B7280" text-anchor="end">
        <text x="50" y="22">1</text>
        <text x="50" y="42">2</text>
        <text x="50" y="62">3</text>
        <text x="50" y="82">4</text>
        <text x="50" y="102">5</text>
        <text x="50" y="122">6</text>
        <text x="50" y="142">7</text>
        <text x="50" y="162">8</text>
        <text x="50" y="182">9</text>
      </g>
      <g font-size="13">
        <text x="60" y="22" fill="#6B7280">2026-06-22 10:23:45 DEBUG</text>
        <text x="60" y="42" fill="#60A5FA">==&gt;  </text>
        <text x="92" y="42" fill="#FB923C">Preparing:</text>
        <text x="180" y="42" fill="#9CA3AF">SELECT u.id, u.name, o.total</text>
        <text x="92" y="62" fill="#9CA3AF">FROM users u JOIN orders o</text>
        <text x="92" y="82" fill="#9CA3AF">  ON u.id = o.user_id</text>
        <text x="92" y="102" fill="#9CA3AF">WHERE u.status = ?</text>
        <text x="92" y="122" fill="#9CA3AF">  AND o.created_at &gt; ?</text>
        <text x="92" y="142" fill="#9CA3AF">ORDER BY o.total DESC</text>
        <text x="60" y="162" fill="#60A5FA">==&gt;  </text>
        <text x="92" y="162" fill="#FB923C">Parameters:</text>
        <text x="180" y="162" fill="#A78BFA">1(String), 2026-01-01(Timestamp)</text>
        <text x="60" y="182" fill="#34D399">&lt;==      </text>
        <text x="118" y="182" fill="#FB923C">Total:</text>
        <text x="160" y="182" fill="#FCD34D">42</text>
      </g>
      <rect x="0" y="500" width="360" height="20" fill="#007ACC"/>
      <text x="12" y="514" font-size="11" fill="#FFFFFF">Ln 1, Col 1</text>
      <text x="200" y="514" font-size="11" fill="#FFFFFF">Plain Text</text>
      <text x="290" y="514" font-size="11" fill="#FFFFFF">UTF-8</text>
    </g>
  </g>

  <g transform="translate(410, 340)">
    <path d="M 0 0 L 60 0" stroke="#FB923C" stroke-width="4" stroke-linecap="round"/>
    <path d="M 52 -8 L 62 0 L 52 8" stroke="#FB923C" stroke-width="4" stroke-linecap="round" stroke-linejoin="round" fill="none"/>
  </g>

  <g transform="translate(485, 80)">
    <text x="180" y="0" text-anchor="middle" font-family="ui-sans-serif, system-ui, sans-serif" font-size="14" font-weight="700" fill="#6B7280" letter-spacing="1">ACTION</text>
    <rect x="0" y="20" width="360" height="540" rx="10" fill="#1E1E1E" stroke="#374151" stroke-width="1"/>
    <rect x="0" y="20" width="360" height="32" rx="10" fill="#252526"/>
    <rect x="0" y="40" width="360" height="12" fill="#252526"/>
    <circle cx="18" cy="36" r="6" fill="#FF5F57"/>
    <circle cx="38" cy="36" r="6" fill="#FEBC2E"/>
    <circle cx="58" cy="36" r="6" fill="#28C840"/>
    <text x="180" y="40" text-anchor="middle" font-size="12" fill="#9CA3AF">sample.log</text>
    <rect x="0" y="52" width="360" height="28" fill="#252526"/>
    <rect x="0" y="52" width="120" height="28" fill="#1E1E1E"/>
    <rect x="0" y="78" width="120" height="2" fill="#FB923C"/>
    <text x="14" y="71" font-size="12" fill="#FFFFFF">sample.log</text>
    <rect x="0" y="80" width="360" height="480" fill="#1E1E1E" opacity="0.4"/>
    <g transform="translate(40, 240)">
      <rect x="0" y="0" width="280" height="44" rx="6" fill="#3C3C3C" stroke="#007ACC" stroke-width="1.5"/>
      <text x="14" y="28" font-size="14" fill="#FFFFFF">&gt; </text>
      <text x="32" y="28" font-size="14" fill="#FFFFFF">MyBatis SQL Formatter: Format</text>
      <rect x="248" y="14" width="2" height="20" fill="#FFFFFF"/>
    </g>
    <g transform="translate(40, 290)">
      <rect x="0" y="0" width="280" height="84" rx="4" fill="#252526" stroke="#454545" stroke-width="1"/>
      <rect x="0" y="0" width="280" height="28" fill="#094771"/>
      <text x="14" y="18" font-size="12" fill="#FFFFFF">MyBatis SQL Formatter: Format Current Document</text>
      <text x="14" y="46" font-size="12" fill="#CCCCCC">MyBatis SQL Formatter: Format Selection</text>
      <text x="14" y="74" font-size="12" fill="#CCCCCC">MyBatis SQL Formatter: Preview Current Document</text>
    </g>
    <g transform="translate(40, 400)">
      <text x="100" y="0" text-anchor="middle" font-family="ui-sans-serif, system-ui, sans-serif" font-size="12" fill="#9CA3AF">Press</text>
      <rect x="50" y="14" width="40" height="28" rx="4" fill="#3C3C3C" stroke="#666" stroke-width="1"/>
      <text x="70" y="34" text-anchor="middle" font-size="13" fill="#FFFFFF" font-weight="600">⇧⌘P</text>
      <text x="100" y="34" text-anchor="middle" font-size="14" fill="#9CA3AF">then type</text>
      <rect x="46" y="56" width="108" height="24" rx="4" fill="#1E40AF"/>
      <text x="100" y="73" text-anchor="middle" font-size="12" fill="#FFFFFF" font-weight="600">mybatis format</text>
    </g>
  </g>

  <g transform="translate(855, 340)">
    <path d="M 0 0 L 60 0" stroke="#10B981" stroke-width="4" stroke-linecap="round"/>
    <path d="M 52 -8 L 62 0 L 52 8" stroke="#10B981" stroke-width="4" stroke-linecap="round" stroke-linejoin="round" fill="none"/>
  </g>

  <g transform="translate(930, 80)">
    <text x="180" y="0" text-anchor="middle" font-family="ui-sans-serif, system-ui, sans-serif" font-size="14" font-weight="700" fill="#6B7280" letter-spacing="1">AFTER</text>
    <rect x="0" y="20" width="360" height="540" rx="10" fill="#1E1E1E" stroke="#374151" stroke-width="1"/>
    <rect x="0" y="20" width="360" height="32" rx="10" fill="#252526"/>
    <rect x="0" y="40" width="360" height="12" fill="#252526"/>
    <circle cx="18" cy="36" r="6" fill="#FF5F57"/>
    <circle cx="38" cy="36" r="6" fill="#FEBC2E"/>
    <circle cx="58" cy="36" r="6" fill="#28C840"/>
    <text x="180" y="40" text-anchor="middle" font-size="12" fill="#9CA3AF">sample.log ●</text>
    <rect x="0" y="52" width="360" height="28" fill="#252526"/>
    <rect x="0" y="52" width="120" height="28" fill="#1E1E1E"/>
    <rect x="0" y="78" width="120" height="2" fill="#10B981"/>
    <text x="14" y="71" font-size="12" fill="#FFFFFF">sample.log</text>
    <text x="58" y="71" font-size="14" fill="#FB923C">●</text>
    <g transform="translate(0, 80)">
      <g font-size="13" fill="#6B7280" text-anchor="end">
        <text x="50" y="22">1</text>
        <text x="50" y="42">2</text>
        <text x="50" y="62">3</text>
        <text x="50" y="82">4</text>
        <text x="50" y="102">5</text>
        <text x="50" y="122">6</text>
        <text x="50" y="142">7</text>
        <text x="50" y="162">8</text>
        <text x="50" y="182">9</text>
        <text x="50" y="202">10</text>
        <text x="50" y="222">11</text>
        <text x="50" y="242">12</text>
        <text x="50" y="262">13</text>
        <text x="50" y="282">14</text>
        <text x="50" y="302">15</text>
        <text x="50" y="322">16</text>
        <text x="50" y="342">17</text>
        <text x="50" y="362">18</text>
        <text x="50" y="382">19</text>
        <text x="50" y="402">20</text>
        <text x="50" y="422">21</text>
        <text x="50" y="442">22</text>
        <text x="50" y="462">23</text>
        <text x="50" y="482">24</text>
      </g>
      <g font-size="13" opacity="0.55">
        <text x="60" y="22" fill="#6B7280">2026-06-22 10:23:45 DEBUG</text>
        <text x="60" y="42" fill="#60A5FA">==&gt;  </text>
        <text x="92" y="42" fill="#FB923C">Preparing:</text>
        <text x="180" y="42" fill="#9CA3AF">SELECT u.id, u.name, o.total</text>
        <text x="92" y="62" fill="#9CA3AF">FROM users u JOIN orders o</text>
        <text x="92" y="82" fill="#9CA3AF">  ON u.id = o.user_id</text>
        <text x="92" y="102" fill="#9CA3AF">WHERE u.status = ?</text>
        <text x="92" y="122" fill="#9CA3AF">  AND o.created_at &gt; ?</text>
        <text x="92" y="142" fill="#9CA3AF">ORDER BY o.total DESC</text>
        <text x="60" y="162" fill="#60A5FA">==&gt;  </text>
        <text x="92" y="162" fill="#FB923C">Parameters:</text>
        <text x="180" y="162" fill="#A78BFA">1(String), 2026-01-01(Timestamp)</text>
        <text x="60" y="182" fill="#34D399">&lt;==      </text>
        <text x="118" y="182" fill="#FB923C">Total:</text>
        <text x="160" y="182" fill="#FCD34D">42</text>
      </g>
      <rect x="0" y="200" width="360" height="180" fill="#10B981" opacity="0.08"/>
      <text x="60" y="222" fill="#6B7280">-- === Formatted SQL ===</text>
      <text x="60" y="242" fill="#569CD6" font-weight="600">SELECT</text>
      <text x="118" y="242" fill="#9CDCFE">u.id,</text>
      <text x="160" y="242" fill="#9CDCFE">u.name,</text>
      <text x="226" y="242" fill="#9CDCFE">o.total</text>
      <text x="60" y="262" fill="#569CD6" font-weight="600">FROM</text>
      <text x="106" y="262" fill="#9CDCFE">users</text>
      <text x="150" y="262" fill="#9CDCFE">u</text>
      <text x="170" y="262" fill="#569CD6" font-weight="600">JOIN</text>
      <text x="216" y="262" fill="#9CDCFE">orders</text>
      <text x="266" y="262" fill="#9CDCFE">o</text>
      <text x="60" y="282" fill="#569CD6" font-weight="600">  ON</text>
      <text x="92" y="282" fill="#9CDCFE">u.id = o.user_id</text>
      <text x="60" y="302" fill="#569CD6" font-weight="600">WHERE</text>
      <text x="114" y="302" fill="#9CDCFE">u.status =</text>
      <text x="190" y="302" fill="#CE9178">'active'</text>
      <text x="60" y="322" fill="#569CD6" font-weight="600">  AND</text>
      <text x="100" y="322" fill="#9CDCFE">o.created_at &gt;</text>
      <text x="218" y="322" fill="#CE9178">'2026-01-01'</text>
      <text x="60" y="342" fill="#569CD6" font-weight="600">ORDER BY</text>
      <text x="138" y="342" fill="#9CDCFE">o.total</text>
      <text x="194" y="342" fill="#569CD6" font-weight="600">DESC</text>
      <text x="232" y="342" fill="#9CDCFE">;</text>
      <text x="60" y="372" fill="#6B7280">-- === End ===</text>
      <g transform="translate(70, 420)">
        <rect x="0" y="0" width="220" height="40" rx="6" fill="#252526" stroke="#10B981" stroke-width="1.5"/>
        <text x="14" y="18" font-size="11" fill="#10B981" font-weight="600">✓ Inserted 1 formatted SQL block</text>
        <text x="14" y="32" font-size="10" fill="#9CA3AF">Press ⌘Z to undo</text>
      </g>
    </g>
    <rect x="0" y="500" width="360" height="20" fill="#007ACC"/>
    <text x="12" y="514" font-size="11" fill="#FFFFFF">Ln 19, Col 1</text>
    <text x="200" y="514" font-size="11" fill="#FFFFFF">Plain Text</text>
    <text x="290" y="514" font-size="11" fill="#FFFFFF">UTF-8</text>
  </g>

  <text x="600" y="670" text-anchor="middle" font-family="ui-sans-serif, system-ui, sans-serif" font-size="13" fill="#6B7280">The original log block is preserved untouched. The formatted SQL — with parameters inlined as literals — is inserted directly below.</text>
</svg>
